HIERARCHY
ROOT Hips
{
	OFFSET	0.00	0.00	0.00
	CHANNELS 6 Xposition Yposition Zposition Zrotation Xrotation Yrotation
	JOINT LeftUpLeg
	{
		OFFSET	 0.126116	-0.014019	-0.065224
		CHANNELS 3 Zrotation Xrotation Yrotation
		JOINT LeftLeg
		{
			OFFSET	 0.000000	 0.000000	 0.569914
			CHANNELS 3 Zrotation Xrotation Yrotation
			JOINT LeftFoot
			{
				OFFSET	 0.000000	 0.000000	 0.544423
				CHANNELS 3 Zrotation Xrotation Yrotation
				JOINT LeftToeBase
				{
					OFFSET	 0.000000	 0.000000	 0.207117
					CHANNELS 3 Zrotation Xrotation Yrotation
					End Site
					{
						OFFSET	 0.000000	 0.000000	 0.207117
					}
				}
			}
		}
	}
	JOINT RightUpLeg
	{
		OFFSET	-0.124023	-0.008373	-0.065224
		CHANNELS 3 Zrotation Xrotation Yrotation
		JOINT RightLeg
		{
			OFFSET	 0.000000	 0.000000	 0.570047
			CHANNELS 3 Zrotation Xrotation Yrotation
			JOINT RightFoot
			{
				OFFSET	 0.000000	 0.000000	 0.544354
				CHANNELS 3 Zrotation Xrotation Yrotation
				JOINT RightToeBase
				{
					OFFSET	 0.000000	 0.000000	 0.207540
					CHANNELS 3 Zrotation Xrotation Yrotation
					End Site
					{
						OFFSET	 0.000000	 0.000000	 0.207540
					}
				}
			}
		}
	}
	JOINT Spine
	{
		OFFSET	 0.000184	-0.007763	 0.117403
		CHANNELS 3 Zrotation Xrotation Yrotation
		JOINT Spine1
		{
			OFFSET	 0.000000	 0.000000	 0.137269
			CHANNELS 3 Zrotation Xrotation Yrotation
			JOINT Spine2
			{
				OFFSET	 0.000000	 0.000000	 0.156879
				CHANNELS 3 Zrotation Xrotation Yrotation
				JOINT LeftShoulder
				{
					OFFSET	 0.080501	-0.002496	 0.160144
					CHANNELS 3 Zrotation Xrotation Yrotation
					JOINT LeftArm
					{
						OFFSET	 0.000000	 0.000000	 0.164363
						CHANNELS 3 Zrotation Xrotation Yrotation
						JOINT LeftForeArm
						{
							OFFSET	 0.000000	 0.000000	 0.364576
							CHANNELS 3 Zrotation Xrotation Yrotation
							JOINT LeftHand
							{
								OFFSET	 0.000000	 0.000000	 0.360812
								CHANNELS 3 Zrotation Xrotation Yrotation
								JOINT LeftHandIndex1
								{
									OFFSET	 0.000000	 0.000000	 0.086006
									CHANNELS 3 Zrotation Xrotation Yrotation
									JOINT LeftHandIndex2
									{
										OFFSET	 0.000000	 0.000000	 0.047236
										CHANNELS 3 Zrotation Xrotation Yrotation
										JOINT LeftHandIndex3
										{
											OFFSET	-0.004284	-0.000551	 0.038166
											CHANNELS 3 Zrotation Xrotation Yrotation
											End Site
											{
												OFFSET	-0.004284	-0.000551	 0.038166
											}
										}
									}
								}
							}
						}
					}
				}
				JOINT Neck
				{
					OFFSET	 0.000000	 0.000000	 0.176489
					CHANNELS 3 Zrotation Xrotation Yrotation
					JOINT Head
					{
						OFFSET	 0.000000	-0.001747	 0.077940
						CHANNELS 3 Zrotation Xrotation Yrotation
						End Site
						{
							OFFSET	 0.000000	-0.001747	 0.077940
						}
					}
				}
				JOINT RightShoulder
				{
					OFFSET	-0.080363	 0.000306	 0.159706
					CHANNELS 3 Zrotation Xrotation Yrotation
					JOINT RightArm
					{
						OFFSET	 0.000000	 0.000000	 0.164196
						CHANNELS 3 Zrotation Xrotation Yrotation
						JOINT RightForeArm
						{
							OFFSET	 0.000000	 0.000000	 0.365611
							CHANNELS 3 Zrotation Xrotation Yrotation
							JOINT RightHand
							{
								OFFSET	 0.000000	 0.000000	 0.360648
								CHANNELS 3 Zrotation Xrotation Yrotation
								JOINT RightHandIndex1
								{
									OFFSET	 0.000000	 0.000000	 0.069977
									CHANNELS 3 Zrotation Xrotation Yrotation
									JOINT RightHandIndex2
									{
										OFFSET	 0.000000	 0.000000	 0.052305
										CHANNELS 3 Zrotation Xrotation Yrotation
										JOINT RightHandIndex3
										{
											OFFSET	 0.009002	-0.000782	 0.042196
											CHANNELS 3 Zrotation Xrotation Yrotation
											End Site
											{
												OFFSET	 0.009002	-0.000782	 0.042196
											}
										}
									}
								}
							}
						}
					}
				}
			}
		}
	}
}
MOTION
Frames:    5
Frame Time: 0.03333334
-0.030578	 0.262227	 1.040844	 2.906438	 32.943860	-8.175285	 56.621390	-74.083340	-132.594600	 5.396580	-67.508510	 5.373647	 66.088590	 73.030230	-77.343500	-2.385832	 28.452790	-0.000001	 32.942670	-83.148480	-142.303200	-15.677650	-71.954760	-10.024130	-28.293310	 76.124310	 53.524680	 2.384659	 28.388700	-0.000001	 10.297550	 13.970950	 0.661936	-1.686066	 19.193410	 1.015832	-4.666885	-1.681126	 4.024820	-99.170650	 68.202770	 156.764600	 2.863279	-9.481931	-46.922790	 1.577636	-0.901481	-5.913456	-33.398480	-21.218980	-21.655630	-2.027600	 6.559038	 9.033609	-5.188889	 0.308190	 3.541030	-5.234859	 0.342567	 0.430617	 0.400966	 17.835040	-6.125622	-3.377912	-28.717250	-2.454661	 97.465660	 64.640950	-159.211800	-11.934140	 6.575395	 58.482740	-15.655040	-4.513749	 28.659290	 17.390400	-20.762320	 17.041770	 1.803333	 3.979147	-15.098590	 4.898592	 3.004813	-9.310344	 5.224449	 0.395017	 2.014677
-0.027302	 0.260155	 1.059714	 2.769001	 31.571780	-7.659770	 49.427970	-71.595360	-140.068300	 4.493608	-64.611580	 4.437931	 63.144970	 72.770900	-73.790440	-2.385832	 28.452790	-0.000001	 15.054880	-80.508730	-159.270800	-14.542510	-69.078890	-8.786772	-26.551160	 75.688550	 51.360030	 2.384659	 28.388700	-0.000001	 4.274904	 13.515550	 0.460174	-1.362428	 19.062760	 0.616984	-5.031137	-2.457630	 3.752621	-98.786990	 68.464300	 157.554100	 3.504294	-6.898593	-47.599500	 5.174284	-1.665218	-7.621188	-33.156850	-23.511660	-22.169310	-2.027600	 6.559038	 9.033609	-5.188889	 0.308190	 3.541030	-5.234859	 0.342567	 0.430617	-0.215134	 13.697370	-4.701696	-4.112785	-24.531060	-3.093449	 97.238060	 64.356830	-160.089300	-13.365430	 6.596534	 56.551110	-17.402780	-6.847495	 33.774570	 16.440900	-22.666040	 18.165520	 1.803333	 3.979147	-15.098590	 4.898592	 3.004813	-9.310344	 5.224449	 0.395017	 2.014677
-0.024276	 0.257356	 1.076722	 2.738194	 30.344580	-7.204861	 44.267170	-69.142170	-145.435700	 3.959093	-61.907710	 3.861806	 60.211260	 72.494470	-70.348950	-2.385832	 28.452790	-0.000001	 5.750336	-77.649830	-167.678900	-13.768960	-66.386400	-7.910233	-24.812060	 75.264970	 49.242010	 2.384659	 28.388700	-0.000001	-1.075308	 13.034500	 0.283223	-1.060135	 18.945590	 0.279566	-5.388542	-3.213887	 3.466949	-98.255800	 69.075570	 158.299800	 4.116058	-4.304134	-48.371010	 8.222723	-2.453194	-8.992506	-33.103080	-25.761360	-22.878160	-2.027600	 6.559038	 9.033609	-5.188889	 0.308190	 3.541030	-5.234859	 0.342567	 0.430617	-0.649159	 9.420301	-3.710415	-4.596445	-20.240660	-3.377174	 96.982070	 64.090390	-161.002900	-14.743290	 6.590676	 55.029520	-18.660020	-9.228681	 38.302620	 15.409820	-24.289840	 19.010400	 1.803333	 3.979147	-15.098590	 4.898592	 3.004813	-9.310344	 5.224449	 0.395017	 2.014677
-0.020681	 0.253377	 1.096275	 2.639947	 28.846260	-6.556766	 39.516570	-66.062900	-150.587700	 3.473866	-58.735530	 3.326825	 56.970970	 72.212090	-66.457170	-2.385833	 28.452760	 0.000004	-1.241325	-73.947070	-173.674800	-13.141980	-63.115730	-7.140994	-22.706040	 74.795620	 46.704520	 2.384659	 28.388700	-0.000001	-7.219182	 12.424850	 0.078041	-0.792766	 18.926760	-0.016440	-5.797290	-4.332474	 3.047011	-97.332890	 70.391510	 159.227800	 5.016765	-0.793951	-49.354890	 11.598960	-3.459078	-10.413650	-33.309690	-28.522660	-24.170840	-2.027600	 6.559038	 9.033609	-5.188889	 0.308190	 3.541030	-5.234859	 0.342567	 0.430617	-1.004624	 3.531303	-2.481883	-5.147920	-14.421460	-3.754838	 96.627240	 64.337770	-161.731700	-16.402970	 7.639282	 53.342240	-20.086160	-12.442850	 43.278270	 14.118840	-26.257990	 19.555070	 1.803333	 3.979147	-15.098590	 4.898592	 3.004813	-9.310344	 5.224449	 0.395017	 2.014677
-0.018005	 0.249762	 1.112939	 2.483079	 27.406640	-5.892637	 36.032890	-63.214200	-154.565400	 3.358331	-55.949780	 3.129084	 53.997880	 72.016630	-63.056510	-2.385833	 28.452760	 0.000004	-5.709985	-70.437600	-177.305500	-12.893350	-60.143120	-6.728961	-21.201070	 74.388390	 44.875600	 2.384659	 28.388700	-0.000001	-12.362860	 11.993130	-0.059000	-0.479705	 19.024120	-0.362979	-6.123450	-5.439890	 2.738400	-95.853550	 72.813950	 159.950300	 5.881221	 3.233413	-51.078770	 14.456770	-4.400831	-11.526350	-33.793800	-31.201020	-25.261450	-2.027600	 6.559038	 9.033609	-5.188889	 0.308190	 3.541030	-5.234859	 0.342567	 0.430617	-1.241937	-2.057005	-2.221556	-5.379467	-8.951569	-3.347774	 95.854930	 65.806500	-162.546800	-17.783880	 9.851941	 53.193760	-21.199120	-15.430100	 47.055430	 13.381070	-28.861210	 19.976670	 1.803333	 3.979147	-15.098590	 4.898592	 3.004813	-9.310344	 5.224449	 0.395017	 2.014677
